<mxfile host="app.diagrams.net" modified="2023-12-05T18:07:12.317Z" agent="Mozilla/5.0 (Windows NT 10.0; Win64; x64) AppleWebKit/537.36 (KHTML, like Gecko) Chrome/119.0.0.0 Safari/537.36" version="22.1.5" etag="P72KNQglrIBzJkTA5lLD" type="github">
  <diagram name="PÃ¡gina-1" id="rXCJ-3uSsOc914hdNIpQ">
    <mxGraphModel>
      <root>
        <mxCell id="0" />
        <mxCell id="1" parent="0" />
      </root>
    </mxGraphModel>
  </diagram>
</mxfile>
